<svg xmlns="http://www.w3.org/2000/svg" xmlns:xlink="http://www.w3.org/1999/xlink" width="500" zoomAndPan="magnify" viewBox="0 0 375 374.999991" height="500" preserveAspectRatio="xMidYMid meet" version="1.0"><defs><g/></defs><g fill="#050505" fill-opacity="1"><g transform="translate(138.336456, 225.032769)"><g><path d="M 47 1.09375 C 40.78125 1.09375 35.179688 0.109375 30.203125 -1.859375 C 25.222656 -3.835938 20.972656 -6.640625 17.453125 -10.265625 C 13.941406 -13.890625 11.253906 -18.300781 9.390625 -23.5 C 7.523438 -28.695312 6.59375 -34.476562 6.59375 -40.84375 C 6.59375 -47.507812 7.613281 -53.585938 9.65625 -59.078125 C 11.707031 -64.566406 14.582031 -69.285156 18.28125 -73.234375 C 21.976562 -77.191406 26.40625 -80.25 31.5625 -82.40625 C 36.726562 -84.570312 42.421875 -85.65625 48.640625 -85.65625 C 53.035156 -85.65625 57.171875 -85.03125 61.046875 -83.78125 C 64.929688 -82.539062 69.144531 -80.53125 73.6875 -77.75 L 75.984375 -84.5625 L 79.828125 -84.5625 L 78.40625 -59.296875 L 73.140625 -59.296875 C 73.140625 -62.878906 72.460938 -65.96875 71.109375 -68.5625 C 69.753906 -71.164062 67.976562 -73.3125 65.78125 -75 C 63.582031 -76.6875 61.070312 -77.929688 58.25 -78.734375 C 55.4375 -79.535156 52.566406 -79.9375 49.640625 -79.9375 C 45.171875 -79.9375 41.175781 -79.054688 37.65625 -77.296875 C 34.144531 -75.546875 31.179688 -73.023438 28.765625 -69.734375 C 26.347656 -66.441406 24.5 -62.414062 23.21875 -57.65625 C 21.9375 -52.894531 21.296875 -47.515625 21.296875 -41.515625 C 21.296875 -29.722656 23.75 -20.660156 28.65625 -14.328125 C 33.5625 -7.992188 40.664062 -4.828125 49.96875 -4.828125 C 53.476562 -4.828125 56.625 -5.25 59.40625 -6.09375 C 62.1875 -6.9375 64.546875 -8.070312 66.484375 -9.5 C 68.429688 -10.925781 69.894531 -12.570312 70.875 -14.4375 C 71.863281 -16.300781 72.359375 -18.257812 72.359375 -20.3125 C 72.359375 -24.5625 71.5 -27.4375 69.78125 -28.9375 C 68.0625 -30.4375 65.265625 -31.1875 61.390625 -31.1875 L 61.390625 -35.359375 L 92.578125 -35.359375 L 92.578125 -31.1875 C 90.816406 -31.1875 89.347656 -31.039062 88.171875 -30.75 C 87.003906 -30.457031 86.070312 -29.925781 85.375 -29.15625 C 84.6875 -28.382812 84.210938 -27.375 83.953125 -26.125 C 83.691406 -24.882812 83.5625 -23.3125 83.5625 -21.40625 L 83.5625 -9.109375 C 82.175781 -9.109375 80.914062 -9.050781 79.78125 -8.9375 C 78.644531 -8.832031 77.453125 -8.578125 76.203125 -8.171875 C 74.960938 -7.773438 73.59375 -7.226562 72.09375 -6.53125 C 70.59375 -5.832031 68.816406 -4.898438 66.765625 -3.734375 C 64.203125 -2.265625 61.253906 -1.09375 57.921875 -0.21875 C 54.585938 0.65625 50.945312 1.09375 47 1.09375 Z M 47 1.09375 "/></g></g></g><path stroke-linecap="butt" transform="matrix(0.363644, -0.65759, 0.65633, 0.362947, 88.434527, 242.048847)" fill="none" stroke-linejoin="miter" d="M 0.000374809 2.998005 L 260.511175 2.999821 " stroke="#000000" stroke-width="6" stroke-opacity="1" stroke-miterlimit="4"/><path stroke-linecap="butt" transform="matrix(0.516671, 0.544951, -0.544264, 0.51602, 90.724518, 242.322332)" fill="none" stroke-linejoin="miter" d="M -0.00104376 3.002465 L 185.777418 2.998776 " stroke="#000000" stroke-width="6" stroke-opacity="1" stroke-miterlimit="4"/><path stroke-linecap="butt" transform="matrix(-0.510877, 0.548234, -0.548695, -0.511306, 281.786352, 245.401669)" fill="none" stroke-linejoin="miter" d="M -0.000873867 3.000163 L 186.15901 3.001386 " stroke="#000000" stroke-width="6" stroke-opacity="1" stroke-miterlimit="4"/><path stroke-linecap="butt" transform="matrix(0.749263, -0.000000000000000335, 0.000000000000000335, 0.75, 90.546899, 241.617303)" fill="none" stroke-linejoin="miter" d="M -0.0000314364 2.999846 L 254.255194 2.999846 " stroke="#000000" stroke-width="6" stroke-opacity="1" stroke-miterlimit="4"/><path stroke-linecap="butt" transform="matrix(0.359583, 0.659603, -0.658505, 0.358985, 187.867624, 70.358287)" fill="none" stroke-linejoin="miter" d="M -0.0028727 3.000683 L 262.565416 3.002446 " stroke="#000000" stroke-width="6" stroke-opacity="1" stroke-miterlimit="4"/><path stroke-linecap="butt" transform="matrix(0.726102, -0.191313, 0.191088, 0.725248, 49.26051, 104.759532)" fill="none" stroke-linejoin="miter" d="M -0.00167438 2.997237 L 185.787684 2.998625 " stroke="#000000" stroke-width="6" stroke-opacity="1" stroke-miterlimit="4"/><path stroke-linecap="butt" transform="matrix(0.650692, -0.375677, 0.375, 0.649519, 50.020712, 104.985586)" fill="none" stroke-linejoin="miter" d="M -0.000995926 2.998579 L 207.632965 2.997735 " stroke="#000000" stroke-width="6" stroke-opacity="1" stroke-miterlimit="4"/><path stroke-linecap="butt" transform="matrix(0.646536, 0.379901, -0.379957, 0.646631, 184.999929, 26.46731)" fill="none" stroke-linejoin="miter" d="M -0.00142856 2.999364 L 212.036888 3.000965 " stroke="#000000" stroke-width="6" stroke-opacity="1" stroke-miterlimit="4"/><path stroke-linecap="butt" transform="matrix(-0.000000000000000616, 0.745301, -0.75, -0.00000000000000062, 187.203626, 28.410547)" fill="none" stroke-linejoin="miter" d="M -0.000524948 3.000668 L 57.369337 3.000668 " stroke="#000000" stroke-width="6" stroke-opacity="1" stroke-miterlimit="4"/><path stroke-linecap="butt" transform="matrix(0.723077, 0.193748, -0.194114, 0.724444, 184.404952, 69.107355)" fill="none" stroke-linejoin="miter" d="M 0.00227082 3.000169 L 190.362175 3.001544 " stroke="#000000" stroke-width="6" stroke-opacity="1" stroke-miterlimit="4"/><path stroke-linecap="butt" transform="matrix(-0.00000000000000012, 0.748748, -0.75, -0.000000000000000121, 52.259132, 104.817108)" fill="none" stroke-linejoin="miter" d="M -0.000937654 3.00176 L 215.374112 3.00176 " stroke="#000000" stroke-width="6" stroke-opacity="1" stroke-miterlimit="4"/><path stroke-linecap="butt" transform="matrix(0.64504, -0.372414, 0.375, 0.649519, 48.207808, 265.710539)" fill="none" stroke-linejoin="miter" d="M -0.00161427 3.000706 L 63.452748 2.998343 " stroke="#000000" stroke-width="6" stroke-opacity="1" stroke-miterlimit="4"/><path stroke-linecap="butt" transform="matrix(0.645018, 0.381482, -0.381795, 0.645548, 51.066608, 264.211946)" fill="none" stroke-linejoin="miter" d="M 0.000645998 2.999382 L 209.180823 2.997048 " stroke="#000000" stroke-width="6" stroke-opacity="1" stroke-miterlimit="4"/><path stroke-linecap="butt" transform="matrix(0.648403, -0.374725, 0.375278, 0.649359, 182.734298, 344.062713)" fill="none" stroke-linejoin="miter" d="M -0.00149644 3.00057 L 212.317992 2.999048 " stroke="#000000" stroke-width="6" stroke-opacity="1" stroke-miterlimit="4"/><path stroke-linecap="butt" transform="matrix(0.218792, 0.716206, -0.717277, 0.21912, 52.163586, 107.133823)" fill="none" stroke-linejoin="miter" d="M 0.00226744 3.000741 L 188.293235 3.002569 " stroke="#000000" stroke-width="6" stroke-opacity="1" stroke-miterlimit="4"/><path stroke-linecap="butt" transform="matrix(0.652497, 0.373622, -0.37268, 0.650853, 282.584429, 241.330883)" fill="none" stroke-linejoin="miter" d="M -0.000650193 3.003008 L 61.857227 2.999835 " stroke="#000000" stroke-width="6" stroke-opacity="1" stroke-miterlimit="4"/><path stroke-linecap="butt" transform="matrix(-0.000918754, -0.750436, 0.749999, -0.000918219, 320.055423, 268.289308)" fill="none" stroke-linejoin="miter" d="M 0.00186288 2.999025 L 214.877019 3.001831 " stroke="#000000" stroke-width="6" stroke-opacity="1" stroke-miterlimit="4"/><path stroke-linecap="butt" transform="matrix(0.221453, -0.718345, 0.716715, 0.22095, 278.568003, 242.612737)" fill="none" stroke-linejoin="miter" d="M -0.00199628 3.001455 L 185.59079 2.998144 " stroke="#000000" stroke-width="6" stroke-opacity="1" stroke-miterlimit="4"/></svg>